<mxfile host="Electron" agent="Mozilla/5.0 (Windows NT 10.0; Win64; x64) AppleWebKit/537.36 (KHTML, like Gecko) draw.io/25.0.1 Chrome/128.0.6613.186 Electron/32.2.6 Safari/537.36" version="25.0.1">
  <diagram name="Page-1" id="sad-VXQjtH_j8MGY-lj4">
    <mxGraphModel dx="392" dy="499" grid="1" gridSize="10" guides="1" tooltips="1" connect="1" arrows="1" fold="1" page="1" pageScale="1" pageWidth="827" pageHeight="1169" math="0" shadow="0">
      <root>
        <mxCell id="0" />
        <mxCell id="1" parent="0" />
        <mxCell id="j9V-ohLOCYpJt9FPyv6H-1" value="aPtoAdapter" style="swimlane;fontStyle=2;align=center;verticalAlign=top;childLayout=stackLayout;horizontal=1;startSize=26;horizontalStack=0;resizeParent=1;resizeLast=0;collapsible=1;marginBottom=0;rounded=0;shadow=0;strokeWidth=1;" parent="1" vertex="1">
          <mxGeometry x="220" y="120" width="260" height="270" as="geometry">
            <mxRectangle x="230" y="140" width="160" height="26" as="alternateBounds" />
          </mxGeometry>
        </mxCell>
        <mxCell id="j9V-ohLOCYpJt9FPyv6H-3" value="- databaseHelper : DatabaseHelper" style="text;align=left;verticalAlign=top;spacingLeft=4;spacingRight=4;overflow=hidden;rotatable=0;points=[[0,0.5],[1,0.5]];portConstraint=eastwest;rounded=0;shadow=0;html=0;" parent="j9V-ohLOCYpJt9FPyv6H-1" vertex="1">
          <mxGeometry y="26" width="260" height="26" as="geometry" />
        </mxCell>
        <mxCell id="j9V-ohLOCYpJt9FPyv6H-4" value="- context : Context" style="text;align=left;verticalAlign=top;spacingLeft=4;spacingRight=4;overflow=hidden;rotatable=0;points=[[0,0.5],[1,0.5]];portConstraint=eastwest;rounded=0;shadow=0;html=0;" parent="j9V-ohLOCYpJt9FPyv6H-1" vertex="1">
          <mxGeometry y="52" width="260" height="26" as="geometry" />
        </mxCell>
        <mxCell id="j9V-ohLOCYpJt9FPyv6H-5" value="- aPtoRequestList : List&lt;PtoRequest&gt;" style="text;align=left;verticalAlign=top;spacingLeft=4;spacingRight=4;overflow=hidden;rotatable=0;points=[[0,0.5],[1,0.5]];portConstraint=eastwest;rounded=0;shadow=0;html=0;" parent="j9V-ohLOCYpJt9FPyv6H-1" vertex="1">
          <mxGeometry y="78" width="260" height="26" as="geometry" />
        </mxCell>
        <mxCell id="j9V-ohLOCYpJt9FPyv6H-13" value="" style="line;html=1;strokeWidth=1;align=left;verticalAlign=middle;spacingTop=-1;spacingLeft=3;spacingRight=3;rotatable=0;labelPosition=right;points=[];portConstraint=eastwest;" parent="j9V-ohLOCYpJt9FPyv6H-1" vertex="1">
          <mxGeometry y="104" width="260" height="22" as="geometry" />
        </mxCell>
        <mxCell id="j9V-ohLOCYpJt9FPyv6H-14" value="+ getCount() : int" style="text;align=left;verticalAlign=top;spacingLeft=4;spacingRight=4;overflow=hidden;rotatable=0;points=[[0,0.5],[1,0.5]];portConstraint=eastwest;" parent="j9V-ohLOCYpJt9FPyv6H-1" vertex="1">
          <mxGeometry y="126" width="260" height="26" as="geometry" />
        </mxCell>
        <mxCell id="j9V-ohLOCYpJt9FPyv6H-20" value="+ getItem() : Object" style="text;align=left;verticalAlign=top;spacingLeft=4;spacingRight=4;overflow=hidden;rotatable=0;points=[[0,0.5],[1,0.5]];portConstraint=eastwest;" parent="j9V-ohLOCYpJt9FPyv6H-1" vertex="1">
          <mxGeometry y="152" width="260" height="26" as="geometry" />
        </mxCell>
        <mxCell id="j9V-ohLOCYpJt9FPyv6H-21" value="+ getItemId() : long" style="text;align=left;verticalAlign=top;spacingLeft=4;spacingRight=4;overflow=hidden;rotatable=0;points=[[0,0.5],[1,0.5]];portConstraint=eastwest;" parent="j9V-ohLOCYpJt9FPyv6H-1" vertex="1">
          <mxGeometry y="178" width="260" height="26" as="geometry" />
        </mxCell>
        <mxCell id="j9V-ohLOCYpJt9FPyv6H-22" value="+ getView() : View" style="text;align=left;verticalAlign=top;spacingLeft=4;spacingRight=4;overflow=hidden;rotatable=0;points=[[0,0.5],[1,0.5]];portConstraint=eastwest;" parent="j9V-ohLOCYpJt9FPyv6H-1" vertex="1">
          <mxGeometry y="204" width="260" height="26" as="geometry" />
        </mxCell>
        <mxCell id="jt1GaOG-knCPEs93k3EU-1" value="+ updateRequestStatus(PtoRequest, String)" style="text;align=left;verticalAlign=top;spacingLeft=4;spacingRight=4;overflow=hidden;rotatable=0;points=[[0,0.5],[1,0.5]];portConstraint=eastwest;" vertex="1" parent="j9V-ohLOCYpJt9FPyv6H-1">
          <mxGeometry y="230" width="260" height="26" as="geometry" />
        </mxCell>
        <mxCell id="j9V-ohLOCYpJt9FPyv6H-16" value="BaseAdapter" style="swimlane;fontStyle=0;childLayout=stackLayout;horizontal=1;startSize=26;fillColor=none;horizontalStack=0;resizeParent=1;resizeParentMax=0;resizeLast=0;collapsible=1;marginBottom=0;whiteSpace=wrap;html=1;" parent="1" vertex="1">
          <mxGeometry x="620" y="120" width="140" height="130" as="geometry" />
        </mxCell>
        <mxCell id="j9V-ohLOCYpJt9FPyv6H-23" value="+getCount() : int" style="text;align=left;verticalAlign=top;spacingLeft=4;spacingRight=4;overflow=hidden;rotatable=0;points=[[0,0.5],[1,0.5]];portConstraint=eastwest;" parent="j9V-ohLOCYpJt9FPyv6H-16" vertex="1">
          <mxGeometry y="26" width="140" height="26" as="geometry" />
        </mxCell>
        <mxCell id="j9V-ohLOCYpJt9FPyv6H-26" value="+getView() : View" style="text;align=left;verticalAlign=top;spacingLeft=4;spacingRight=4;overflow=hidden;rotatable=0;points=[[0,0.5],[1,0.5]];portConstraint=eastwest;" parent="j9V-ohLOCYpJt9FPyv6H-16" vertex="1">
          <mxGeometry y="52" width="140" height="26" as="geometry" />
        </mxCell>
        <mxCell id="j9V-ohLOCYpJt9FPyv6H-25" value="+getItemId() : long" style="text;align=left;verticalAlign=top;spacingLeft=4;spacingRight=4;overflow=hidden;rotatable=0;points=[[0,0.5],[1,0.5]];portConstraint=eastwest;" parent="j9V-ohLOCYpJt9FPyv6H-16" vertex="1">
          <mxGeometry y="78" width="140" height="26" as="geometry" />
        </mxCell>
        <mxCell id="j9V-ohLOCYpJt9FPyv6H-24" value="+getItem() : Object" style="text;align=left;verticalAlign=top;spacingLeft=4;spacingRight=4;overflow=hidden;rotatable=0;points=[[0,0.5],[1,0.5]];portConstraint=eastwest;" parent="j9V-ohLOCYpJt9FPyv6H-16" vertex="1">
          <mxGeometry y="104" width="140" height="26" as="geometry" />
        </mxCell>
        <mxCell id="j9V-ohLOCYpJt9FPyv6H-27" value="Extends" style="endArrow=block;endSize=16;endFill=0;html=1;rounded=0;exitX=1;exitY=0.5;exitDx=0;exitDy=0;entryX=0;entryY=0.5;entryDx=0;entryDy=0;" parent="1" source="j9V-ohLOCYpJt9FPyv6H-4" target="j9V-ohLOCYpJt9FPyv6H-26" edge="1">
          <mxGeometry width="160" relative="1" as="geometry">
            <mxPoint x="470" y="250" as="sourcePoint" />
            <mxPoint x="530" y="280" as="targetPoint" />
          </mxGeometry>
        </mxCell>
      </root>
    </mxGraphModel>
  </diagram>
</mxfile>
